<svg xmlns="http://www.w3.org/2000/svg" viewBox="0 0 375 375" preserveAspectRatio="xMidYMid meet"><g fill="#ffffff" fill-opacity="1"><g transform="translate(36.932818, 208.953649)"><path d="M 13.828125 -31.921875 C 15.523438 -31.921875 17.179688 -31.671875 18.796875 -31.171875 C 20.421875 -30.679688 21.628906 -30.195312 22.421875 -29.71875 L 23.5625 -28.953125 L 20.671875 -23.25 C 20.441406 -23.40625 20.125 -23.601562 19.71875 -23.84375 C 19.3125 -24.082031 18.550781 -24.40625 17.4375 -24.8125 C 16.320312 -25.21875 15.285156 -25.421875 14.328125 -25.421875 C 13.140625 -25.421875 12.222656 -25.164062 11.578125 -24.65625 C 10.929688 -24.15625 10.609375 -23.472656 10.609375 -22.609375 C 10.609375 -22.179688 10.757812 -21.78125 11.0625 -21.40625 C 11.363281 -21.039062 11.878906 -20.648438 12.609375 -20.234375 C 13.347656 -19.816406 13.992188 -19.476562 14.546875 -19.21875 C 15.109375 -18.96875 15.972656 -18.59375 17.140625 -18.09375 C 19.160156 -17.226562 20.882812 -16.050781 22.3125 -14.5625 C 23.75 -13.082031 24.46875 -11.40625 24.46875 -9.53125 C 24.46875 -7.738281 24.144531 -6.171875 23.5 -4.828125 C 22.851562 -3.484375 21.96875 -2.429688 20.84375 -1.671875 C 19.71875 -0.910156 18.46875 -0.347656 17.09375 0.015625 C 15.726562 0.378906 14.25 0.5625 12.65625 0.5625 C 11.289062 0.5625 9.945312 0.421875 8.625 0.140625 C 7.3125 -0.128906 6.207031 -0.472656 5.3125 -0.890625 C 4.425781 -1.304688 3.628906 -1.71875 2.921875 -2.125 C 2.210938 -2.53125 1.695312 -2.875 1.375 -3.15625 L 0.875 -3.578125 L 4.453125 -9.578125 C 4.753906 -9.328125 5.171875 -9.003906 5.703125 -8.609375 C 6.234375 -8.210938 7.175781 -7.6875 8.53125 -7.03125 C 9.882812 -6.375 11.082031 -6.046875 12.125 -6.046875 C 15.132812 -6.046875 16.640625 -7.070312 16.640625 -9.125 C 16.640625 -9.550781 16.53125 -9.945312 16.3125 -10.3125 C 16.101562 -10.6875 15.722656 -11.054688 15.171875 -11.421875 C 14.628906 -11.785156 14.148438 -12.070312 13.734375 -12.28125 C 13.316406 -12.5 12.632812 -12.832031 11.6875 -13.28125 C 10.738281 -13.726562 10.035156 -14.0625 9.578125 -14.28125 C 7.671875 -15.21875 6.195312 -16.390625 5.15625 -17.796875 C 4.125 -19.203125 3.609375 -20.71875 3.609375 -22.34375 C 3.609375 -25.15625 4.644531 -27.453125 6.71875 -29.234375 C 8.800781 -31.023438 11.171875 -31.921875 13.828125 -31.921875 Z"/></g><g transform="translate(62.463601, 208.953649)"><path d="M 4.125 -2.3125 C 1.957031 -4.238281 0.875 -6.707031 0.875 -9.71875 C 0.875 -12.738281 2 -15.21875 4.25 -17.15625 C 6.507812 -19.09375 9.296875 -20.0625 12.609375 -20.0625 C 15.878906 -20.0625 18.632812 -19.085938 20.875 -17.140625 C 23.125 -15.191406 24.25 -12.722656 24.25 -9.734375 C 24.25 -6.742188 23.148438 -4.28125 20.953125 -2.34375 C 18.765625 -0.40625 15.984375 0.5625 12.609375 0.5625 C 9.117188 0.5625 6.289062 -0.394531 4.125 -2.3125 Z M 9.328125 -13.03125 C 8.453125 -12.164062 8.015625 -11.0625 8.015625 -9.71875 C 8.015625 -8.382812 8.429688 -7.289062 9.265625 -6.4375 C 10.109375 -5.59375 11.210938 -5.171875 12.578125 -5.171875 C 13.890625 -5.171875 14.96875 -5.597656 15.8125 -6.453125 C 16.664062 -7.316406 17.09375 -8.410156 17.09375 -9.734375 C 17.09375 -11.066406 16.65625 -12.164062 15.78125 -13.03125 C 14.914062 -13.894531 13.847656 -14.328125 12.578125 -14.328125 C 11.285156 -14.328125 10.203125 -13.894531 9.328125 -13.03125 Z"/></g><g transform="translate(87.576469, 208.953649)"><path d="M 2.28125 0 L 2.28125 -19.5 L 9 -19.5 L 9 -17.4375 L 9.078125 -17.4375 C 10.828125 -19.1875 12.691406 -20.0625 14.671875 -20.0625 C 15.628906 -20.0625 16.582031 -19.929688 17.53125 -19.671875 C 18.488281 -19.421875 19.398438 -19.03125 20.265625 -18.5 C 21.140625 -17.96875 21.847656 -17.210938 22.390625 -16.234375 C 22.941406 -15.265625 23.21875 -14.132812 23.21875 -12.84375 L 23.21875 0 L 16.484375 0 L 16.484375 -11.015625 C 16.484375 -12.035156 16.160156 -12.921875 15.515625 -13.671875 C 14.867188 -14.429688 14.03125 -14.8125 13 -14.8125 C 11.976562 -14.8125 11.054688 -14.421875 10.234375 -13.640625 C 9.410156 -12.859375 9 -11.984375 9 -11.015625 L 9 0 Z"/></g><g transform="translate(112.689337, 208.953649)"><path d="M 3.609375 -2.40625 C 1.785156 -4.394531 0.875 -6.832031 0.875 -9.71875 C 0.875 -12.613281 1.785156 -15.0625 3.609375 -17.0625 C 5.429688 -19.0625 7.75 -20.0625 10.5625 -20.0625 C 13.144531 -20.0625 15.273438 -19.25 16.953125 -17.625 L 16.953125 -19.5 L 23.671875 -19.5 L 23.671875 0 L 17.03125 0 L 17.03125 -2.203125 L 16.953125 -2.203125 C 15.273438 -0.359375 13.144531 0.5625 10.5625 0.5625 C 7.75 0.5625 5.429688 -0.425781 3.609375 -2.40625 Z M 9.328125 -13.03125 C 8.453125 -12.164062 8.015625 -11.0625 8.015625 -9.71875 C 8.015625 -8.382812 8.429688 -7.289062 9.265625 -6.4375 C 10.109375 -5.59375 11.210938 -5.171875 12.578125 -5.171875 C 13.890625 -5.171875 14.96875 -5.597656 15.8125 -6.453125 C 16.664062 -7.316406 17.09375 -8.410156 17.09375 -9.734375 C 17.09375 -11.066406 16.65625 -12.164062 15.78125 -13.03125 C 14.914062 -13.894531 13.847656 -14.328125 12.578125 -14.328125 C 11.285156 -14.328125 10.203125 -13.894531 9.328125 -13.03125 Z"/></g><g transform="translate(138.638035, 208.953649)"><path d="M 2.28125 0 L 2.28125 -19.5 L 9 -19.5 L 9 -16.6875 L 9.078125 -16.6875 C 9.128906 -16.78125 9.210938 -16.90625 9.328125 -17.0625 C 9.441406 -17.21875 9.6875 -17.484375 10.0625 -17.859375 C 10.445312 -18.242188 10.851562 -18.585938 11.28125 -18.890625 C 11.71875 -19.191406 12.273438 -19.460938 12.953125 -19.703125 C 13.640625 -19.941406 14.335938 -20.0625 15.046875 -20.0625 C 15.785156 -20.0625 16.507812 -19.957031 17.21875 -19.75 C 17.925781 -19.550781 18.441406 -19.351562 18.765625 -19.15625 L 19.296875 -18.84375 L 16.484375 -13.140625 C 15.648438 -13.859375 14.488281 -14.21875 13 -14.21875 C 12.1875 -14.21875 11.488281 -14.035156 10.90625 -13.671875 C 10.320312 -13.316406 9.910156 -12.882812 9.671875 -12.375 C 9.429688 -11.875 9.257812 -11.445312 9.15625 -11.09375 C 9.050781 -10.738281 9 -10.460938 9 -10.265625 L 9 0 Z"/></g><g transform="translate(157.558173, 208.953649)"><path d="M 20.21875 -31.34375 L 20.21875 -25.078125 L 9.421875 -25.078125 L 9.421875 -18.84375 L 19.765625 -18.84375 L 19.765625 -12.578125 L 9.421875 -12.578125 L 9.421875 -6.265625 L 20.21875 -6.265625 L 20.21875 0 L 2.28125 0 L 2.28125 -31.34375 Z"/></g><g transform="translate(179.593667, 208.953649)"><path d="M 24.859375 0 L 16.71875 0 L 12.421875 -5.515625 L 8.125 0 L 0 0 L 8.328125 -10.1875 L 1.171875 -19.5 L 9.046875 -19.5 L 12.421875 -14.96875 L 15.8125 -19.5 L 23.671875 -19.5 L 16.53125 -10.1875 Z"/></g><g transform="translate(204.440586, 208.953649)"><path d="M 3.421875 -19.5 L 3.421875 -26.75 L 10.140625 -26.75 L 10.140625 -19.5 L 14.25 -19.5 L 14.25 -14.359375 L 10.140625 -14.359375 L 10.140625 -8.171875 C 10.140625 -6.367188 10.648438 -5.46875 11.671875 -5.46875 C 11.921875 -5.46875 12.179688 -5.519531 12.453125 -5.625 C 12.734375 -5.726562 12.953125 -5.828125 13.109375 -5.921875 L 13.34375 -6.078125 L 15.015625 -0.640625 C 13.566406 0.160156 11.914062 0.5625 10.0625 0.5625 C 8.800781 0.5625 7.710938 0.34375 6.796875 -0.09375 C 5.890625 -0.539062 5.203125 -1.132812 4.734375 -1.875 C 4.265625 -2.625 3.925781 -3.410156 3.71875 -4.234375 C 3.519531 -5.054688 3.421875 -5.9375 3.421875 -6.875 L 3.421875 -14.359375 L 0.609375 -14.359375 L 0.609375 -19.5 Z"/></g><g transform="translate(219.44752, 208.953649)"><path d="M 2.28125 0 L 2.28125 -19.5 L 9 -19.5 L 9 -16.6875 L 9.078125 -16.6875 C 9.128906 -16.78125 9.210938 -16.90625 9.328125 -17.0625 C 9.441406 -17.21875 9.6875 -17.484375 10.0625 -17.859375 C 10.445312 -18.242188 10.851562 -18.585938 11.28125 -18.890625 C 11.71875 -19.191406 12.273438 -19.460938 12.953125 -19.703125 C 13.640625 -19.941406 14.335938 -20.0625 15.046875 -20.0625 C 15.785156 -20.0625 16.507812 -19.957031 17.21875 -19.75 C 17.925781 -19.550781 18.441406 -19.351562 18.765625 -19.15625 L 19.296875 -18.84375 L 16.484375 -13.140625 C 15.648438 -13.859375 14.488281 -14.21875 13 -14.21875 C 12.1875 -14.21875 11.488281 -14.035156 10.90625 -13.671875 C 10.320312 -13.316406 9.910156 -12.882812 9.671875 -12.375 C 9.429688 -11.875 9.257812 -11.445312 9.15625 -11.09375 C 9.050781 -10.738281 9 -10.460938 9 -10.265625 L 9 0 Z"/></g><g transform="translate(238.367658, 208.953649)"><path d="M 3.609375 -2.40625 C 1.785156 -4.394531 0.875 -6.832031 0.875 -9.71875 C 0.875 -12.613281 1.785156 -15.0625 3.609375 -17.0625 C 5.429688 -19.0625 7.75 -20.0625 10.5625 -20.0625 C 13.144531 -20.0625 15.273438 -19.25 16.953125 -17.625 L 16.953125 -19.5 L 23.671875 -19.5 L 23.671875 0 L 17.03125 0 L 17.03125 -2.203125 L 16.953125 -2.203125 C 15.273438 -0.359375 13.144531 0.5625 10.5625 0.5625 C 7.75 0.5625 5.429688 -0.425781 3.609375 -2.40625 Z M 9.328125 -13.03125 C 8.453125 -12.164062 8.015625 -11.0625 8.015625 -9.71875 C 8.015625 -8.382812 8.429688 -7.289062 9.265625 -6.4375 C 10.109375 -5.59375 11.210938 -5.171875 12.578125 -5.171875 C 13.890625 -5.171875 14.96875 -5.597656 15.8125 -6.453125 C 16.664062 -7.316406 17.09375 -8.410156 17.09375 -9.734375 C 17.09375 -11.066406 16.65625 -12.164062 15.78125 -13.03125 C 14.914062 -13.894531 13.847656 -14.328125 12.578125 -14.328125 C 11.285156 -14.328125 10.203125 -13.894531 9.328125 -13.03125 Z"/></g><g transform="translate(264.316357, 208.953649)"><path d="M 12.65625 -14.546875 C 11.382812 -14.546875 10.289062 -14.078125 9.375 -13.140625 C 8.46875 -12.203125 8.015625 -11.078125 8.015625 -9.765625 C 8.015625 -8.421875 8.46875 -7.28125 9.375 -6.34375 C 10.289062 -5.40625 11.382812 -4.9375 12.65625 -4.9375 C 13.257812 -4.9375 13.832031 -5.007812 14.375 -5.15625 C 14.925781 -5.3125 15.328125 -5.46875 15.578125 -5.625 L 15.921875 -5.859375 L 18.203125 -1.171875 C 18.023438 -1.046875 17.773438 -0.890625 17.453125 -0.703125 C 17.140625 -0.515625 16.421875 -0.257812 15.296875 0.0625 C 14.171875 0.394531 12.960938 0.5625 11.671875 0.5625 C 8.804688 0.5625 6.289062 -0.441406 4.125 -2.453125 C 1.957031 -4.460938 0.875 -6.875 0.875 -9.6875 C 0.875 -12.53125 1.957031 -14.96875 4.125 -17 C 6.289062 -19.039062 8.804688 -20.0625 11.671875 -20.0625 C 12.960938 -20.0625 14.148438 -19.910156 15.234375 -19.609375 C 16.328125 -19.304688 17.101562 -19.003906 17.5625 -18.703125 L 18.203125 -18.234375 L 15.921875 -13.640625 C 15.085938 -14.242188 14 -14.546875 12.65625 -14.546875 Z"/></g><g transform="translate(282.970545, 208.953649)"><path d="M 3.421875 -19.5 L 3.421875 -26.75 L 10.140625 -26.75 L 10.140625 -19.5 L 14.25 -19.5 L 14.25 -14.359375 L 10.140625 -14.359375 L 10.140625 -8.171875 C 10.140625 -6.367188 10.648438 -5.46875 11.671875 -5.46875 C 11.921875 -5.46875 12.179688 -5.519531 12.453125 -5.625 C 12.734375 -5.726562 12.953125 -5.828125 13.109375 -5.921875 L 13.34375 -6.078125 L 15.015625 -0.640625 C 13.566406 0.160156 11.914062 0.5625 10.0625 0.5625 C 8.800781 0.5625 7.710938 0.34375 6.796875 -0.09375 C 5.890625 -0.539062 5.203125 -1.132812 4.734375 -1.875 C 4.265625 -2.625 3.925781 -3.410156 3.71875 -4.234375 C 3.519531 -5.054688 3.421875 -5.9375 3.421875 -6.875 L 3.421875 -14.359375 L 0.609375 -14.359375 L 0.609375 -19.5 Z"/></g><g transform="translate(297.977479, 208.953649)"><path d="M 4.125 -2.3125 C 1.957031 -4.238281 0.875 -6.707031 0.875 -9.71875 C 0.875 -12.738281 2 -15.21875 4.25 -17.15625 C 6.507812 -19.09375 9.296875 -20.0625 12.609375 -20.0625 C 15.878906 -20.0625 18.632812 -19.085938 20.875 -17.140625 C 23.125 -15.191406 24.25 -12.722656 24.25 -9.734375 C 24.25 -6.742188 23.148438 -4.28125 20.953125 -2.34375 C 18.765625 -0.40625 15.984375 0.5625 12.609375 0.5625 C 9.117188 0.5625 6.289062 -0.394531 4.125 -2.3125 Z M 9.328125 -13.03125 C 8.453125 -12.164062 8.015625 -11.0625 8.015625 -9.71875 C 8.015625 -8.382812 8.429688 -7.289062 9.265625 -6.4375 C 10.109375 -5.59375 11.210938 -5.171875 12.578125 -5.171875 C 13.890625 -5.171875 14.96875 -5.597656 15.8125 -6.453125 C 16.664062 -7.316406 17.09375 -8.410156 17.09375 -9.734375 C 17.09375 -11.066406 16.65625 -12.164062 15.78125 -13.03125 C 14.914062 -13.894531 13.847656 -14.328125 12.578125 -14.328125 C 11.285156 -14.328125 10.203125 -13.894531 9.328125 -13.03125 Z"/></g><g transform="translate(323.090347, 208.953649)"><path d="M 2.28125 0 L 2.28125 -19.5 L 9 -19.5 L 9 -16.6875 L 9.078125 -16.6875 C 9.128906 -16.78125 9.210938 -16.90625 9.328125 -17.0625 C 9.441406 -17.21875 9.6875 -17.484375 10.0625 -17.859375 C 10.445312 -18.242188 10.851562 -18.585938 11.28125 -18.890625 C 11.71875 -19.191406 12.273438 -19.460938 12.953125 -19.703125 C 13.640625 -19.941406 14.335938 -20.0625 15.046875 -20.0625 C 15.785156 -20.0625 16.507812 -19.957031 17.21875 -19.75 C 17.925781 -19.550781 18.441406 -19.351562 18.765625 -19.15625 L 19.296875 -18.84375 L 16.484375 -13.140625 C 15.648438 -13.859375 14.488281 -14.21875 13 -14.21875 C 12.1875 -14.21875 11.488281 -14.035156 10.90625 -13.671875 C 10.320312 -13.316406 9.910156 -12.882812 9.671875 -12.375 C 9.429688 -11.875 9.257812 -11.445312 9.15625 -11.09375 C 9.050781 -10.738281 9 -10.460938 9 -10.265625 L 9 0 Z"/></g></g></svg>
